<svg xmlns="http://www.w3.org/2000/svg" width="500" viewBox="0 0 375 375" height="500" version="1.0"><defs><clipPath id="a"><path d="M29 84.973h316V193H29zm0 0"/></clipPath><clipPath id="b"><path d="M15 212h344v77.723H15zm0 0"/></clipPath></defs><g clip-path="url(#a)"><path fill="#252f3e" d="M112.207 159.32c0 4.215.453 7.63 1.254 10.137.914 2.504 2.05 5.238 3.648 8.2.57.91.801 1.82.801 2.616 0 1.141-.683 2.278-2.168 3.418l-7.187 4.782c-1.024.687-2.051 1.027-2.965 1.027-1.14 0-2.281-.57-3.422-1.594a35.29 35.29 0 0 1-4.106-5.355c-1.14-1.934-2.28-4.098-3.535-6.719-8.898 10.477-20.074 15.719-33.535 15.719-9.578 0-17.222-2.735-22.812-8.2-5.586-5.468-8.438-12.757-8.438-21.867 0-9.68 3.422-17.539 10.38-23.46 6.956-5.922 16.194-8.883 27.944-8.883 3.875 0 7.868.34 12.09.91 4.219.57 8.555 1.48 13.117 2.504v-8.313c0-8.656-1.828-14.691-5.363-18.222-3.648-3.528-9.808-5.239-18.59-5.239a52.08 52.08 0 0 0-12.32 1.48c-4.219 1.024-8.324 2.278-12.316 3.876-1.825.797-3.196 1.25-3.993 1.48-.8.227-1.37.34-1.824.34-1.597 0-2.398-1.14-2.398-3.531v-5.582c0-1.82.23-3.188.8-3.985.57-.796 1.598-1.593 3.192-2.39 3.992-2.051 8.785-3.758 14.375-5.125 5.586-1.48 11.52-2.164 17.789-2.164 13.574 0 23.5 3.074 29.887 9.226 6.273 6.149 9.465 15.485 9.465 28.016v36.898zM65.898 176.63c3.766 0 7.641-.68 11.747-2.05 4.109-1.364 7.757-3.872 10.835-7.286 1.829-2.164 3.196-4.559 3.88-7.29.683-2.733 1.14-6.038 1.14-9.91v-4.78a95.887 95.887 0 0 0-10.492-1.938 86.597 86.597 0 0 0-10.723-.684c-7.64 0-13.23 1.48-16.996 4.555-3.762 3.078-5.59 7.406-5.59 13.098 0 5.351 1.371 9.34 4.223 12.074 2.738 2.848 6.73 4.21 11.976 4.21zm91.598 12.3c-2.059 0-3.434-.34-4.348-1.14-.902-.68-1.71-2.277-2.394-4.437l-26.8-88.036c-.684-2.277-1.028-3.757-1.028-4.554 0-1.825.914-2.848 2.738-2.848h11.18c2.168 0 3.648.34 4.449 1.137.91.683 1.594 2.277 2.277 4.441l19.16 75.395 17.801-75.395c.563-2.277 1.25-3.758 2.164-4.441.918-.684 2.504-1.137 4.563-1.137h9.12c2.169 0 3.65.34 4.563 1.137.914.683 1.711 2.277 2.168 4.441l18.032 76.305 19.722-76.305c.688-2.277 1.48-3.758 2.29-4.437.902-.684 2.394-1.14 4.44-1.14h10.614c1.816 0 2.84.91 2.84 2.847 0 .57-.106 1.136-.215 1.82-.121.684-.348 1.598-.809 2.848l-27.488 88.035c-.687 2.277-1.48 3.758-2.394 4.441-.914.684-2.395 1.14-4.332 1.14H216c-2.168 0-3.648-.343-4.563-1.14-.914-.797-1.71-2.277-2.167-4.554l-17.68-73.457-17.559 73.343c-.578 2.278-1.265 3.758-2.168 4.555-.914.797-2.515 1.137-4.558 1.137zm146.555 3.075c-5.934 0-11.856-.684-17.559-2.05-5.707-1.364-10.16-2.845-13.12-4.556-1.829-1.023-3.079-2.164-3.536-3.187a7.947 7.947 0 0 1-.688-3.188v-5.808c0-2.395.914-3.531 2.625-3.531.684 0 1.372.113 2.059.343.684.227 1.707.68 2.852 1.137a62.135 62.135 0 0 0 12.539 3.984c4.562.915 9.015 1.368 13.578 1.368 7.183 0 12.77-1.25 16.656-3.758 3.875-2.504 5.922-6.149 5.922-10.82 0-3.188-1.024-5.805-3.07-7.973-2.059-2.16-5.934-4.098-11.532-5.922l-16.535-5.121c-8.328-2.621-14.476-6.492-18.246-11.617-3.766-5.012-5.703-10.594-5.703-16.516 0-4.781 1.02-8.996 3.078-12.64 2.059-3.645 4.793-6.833 8.211-9.34 3.43-2.618 7.305-4.555 11.867-5.922 4.563-1.367 9.352-1.934 14.371-1.934 2.5 0 5.125.113 7.64.453 2.626.344 5.02.797 7.415 1.254 2.273.57 4.441 1.14 6.5 1.82 2.059.684 3.645 1.368 4.79 2.051 1.6.914 2.745 1.824 3.417 2.848.688.91 1.035 2.164 1.035 3.758v5.355c0 2.39-.914 3.645-2.62 3.645-.919 0-2.395-.457-4.337-1.371-6.512-2.961-13.805-4.442-21.902-4.442-6.5 0-11.64 1.028-15.164 3.192-3.54 2.164-5.371 5.464-5.371 10.136 0 3.188 1.144 5.922 3.433 8.086 2.274 2.16 6.496 4.328 12.54 6.262l16.199 5.125c8.207 2.621 14.144 6.266 17.68 10.934 3.527 4.668 5.25 10.023 5.25 15.945 0 4.894-1.036 9.336-2.973 13.21-2.047 3.872-4.793 7.29-8.332 10.02-3.524 2.848-7.75 4.899-12.66 6.38-5.126 1.593-10.481 2.39-16.31 2.39zm0 0"/></g><g clip-path="url(#b)"><path fill="#f90" d="M325.605 247.348c-37.527 27.675-92.035 42.375-138.914 42.375-65.703 0-124.898-24.266-169.605-64.582-3.543-3.184-.348-7.512 3.871-5.012 48.363 28.027 108.016 44.992 169.715 44.992 41.633 0 87.379-8.652 129.457-26.426 6.281-2.847 11.637 4.098 5.476 8.653zm15.637-17.762c-4.789-6.152-31.715-2.953-43.918-1.477-3.648.457-4.226-2.742-.914-5.132 21.445-15.028 56.688-10.7 60.79-5.688 4.116 5.125-1.13 40.309-21.204 57.172-3.082 2.617-6.055 1.25-4.683-2.164 4.562-11.274 14.718-36.676 9.93-42.711zm0 0"/></g></svg>